<?xml version="1.0" encoding="utf-8"?>
<!-- Generator: Adobe Illustrator 23.1.0, SVG Export Plug-In . SVG Version: 6.00 Build 0)  -->
<svg version="1.1" id="_x31_0" xmlns="http://www.w3.org/2000/svg" xmlns:xlink="http://www.w3.org/1999/xlink" x="0px" y="0px"
	 viewBox="0 0 512 512" style="enable-background:new 0 0 512 512;" xml:space="preserve" width="120" height="120">
<style type="text/css">
	.st0{fill:#fff;}
</style>
<g>
	<path class="st0" d="M505.5,108.2c0.1-0.2,0.3-0.3,0.4-0.5c-14.8,6.6-30.5,11.3-46.8,14.3c-4,0.6-8,1.2-12.1,1.6
		c16.7-10.2,30.2-25,38.9-42.6c2.3-4.5,4.5-9.1,6.2-14c-0.1,0.1-0.2,0.1-0.4,0.2c0-0.2,0.1-0.3,0.2-0.5
		c-20,11.8-42.1,20.4-65.6,25.1c-18.9-20.1-45.7-32.6-75.4-32.6c-57.1,0-103.4,46.3-103.4,103.4c0,7.4,0.9,14.5,2.3,21.5
		c0.1,0.7,0.2,1.4,0.3,2.1c-75.1-3.8-142.7-35.7-192.6-85.5c-7-7.1-13.8-14.5-20.1-22.4c0,0,0,0.1,0,0.1c-0.1-0.1-0.2-0.2-0.2-0.3
		c-8.9,15.3-14,33-14,52c0,29.4,12.4,55.8,32.1,74.7c4.1,4.1,8.5,7.9,13.4,11.3c-16.8-0.6-32.5-5.2-46.3-12.9c0,0.4,0,0.9,0,1.3
		c0,41.6,24.8,77.3,60.3,93.6c7,3.3,14.3,6.1,22.1,7.8c-8.5,2.3-17.4,3.5-26.7,3.5c-5.4,0-10.6-0.5-15.8-1.3
		c-1.1-0.2-2.3-0.3-3.4-0.6c0,0.1,0,0.1,0.1,0.1c-0.1,0-0.2,0-0.4,0c11.5,36,42.2,63.3,80,70.2c5.3,1,10.7,1.6,16.2,1.8
		c-35.3,27.6-79.8,44-128.1,44c-7,0-13.8-0.5-20.6-1.2c-1.3-0.2-2.6-0.3-3.9-0.5c0.2,0.1,0.4,0.2,0.5,0.3c-0.2,0-0.5,0-0.7,0
		c45.7,29.3,100.1,46.4,158.4,46.4c93,0,165.4-37.8,215.1-92.3c0.4-0.5,0.9-0.9,1.3-1.4c5.4-5.9,10.4-12.1,15.2-18.4
		c1.2-1.5,2.3-3,3.4-4.5c4.1-5.6,7.9-11.2,11.6-17c1.5-2.3,2.9-4.6,4.3-7c3.3-5.5,6.3-11,9.2-16.7c1.3-2.6,2.7-5.1,3.9-7.8
		c2.9-6,5.5-12.1,8-18.3c0.8-2.1,1.7-4.1,2.5-6.2c2.8-7.5,5.3-15,7.5-22.6c0.2-0.6,0.4-1.2,0.5-1.8c7.6-26.6,11.5-53.8,11.5-80.1
		c0-4.5-0.1-8.9-0.3-13.4c16-11.6,30.3-25.5,42.4-41.1c3.2-4,6.3-8,9.3-12.2C505.8,108.1,505.7,108.2,505.5,108.2z"/>
</g>
</svg>
