<!--?xml version="1.0" encoding="utf-8"?-->
<!-- Generator: Adobe Illustrator 18.0.0, SVG Export Plug-In . SVG Version: 6.00 Build 0)  -->

<svg version="1.1" id="_x32_" xmlns="http://www.w3.org/2000/svg" xmlns:xlink="http://www.w3.org/1999/xlink" x="0px" y="0px" viewBox="0 0 512 512" style="enable-background:new 0 0 512 512;" xml:space="preserve">
<style type="text/css">
	.st0{fill:#fff;}
</style>
<g>
	<path class="st0" d="M94.811,21.696c-35.18,22.816-42.091,94.135-28.809,152.262c10.344,45.266,32.336,105.987,69.42,163.165
		c34.886,53.79,83.557,102.022,120.669,129.928c47.657,35.832,115.594,58.608,150.774,35.792
		c17.789-11.537,44.218-43.058,45.424-48.714c0,0-15.498-23.896-18.899-29.14l-51.972-80.135
		c-3.862-5.955-28.082-0.512-40.386,6.457c-16.597,9.404-31.882,34.636-31.882,34.636c-11.38,6.575-20.912,0.024-40.828-9.142
		c-24.477-11.262-51.997-46.254-73.9-77.947c-20.005-32.923-40.732-72.322-41.032-99.264c-0.247-21.922-2.341-33.296,8.304-41.006
		c0,0,29.272-3.666,44.627-14.984c11.381-8.392,26.228-28.286,22.366-34.242l-51.972-80.134c-3.401-5.244-18.899-29.14-18.899-29.14
		C152.159-1.117,112.6,10.159,94.811,21.696z"></path>
</g>
</svg>
